<?xml version="1.0" encoding="UTF-8"?>
<svg id="Layer_1" data-name="Layer 1" xmlns="http://www.w3.org/2000/svg" viewBox="0 0 1080 360">
  <defs>
    <style>
      .cls-1 {
        fill: #faac0c;
        stroke-width: 0px;
      }
    </style>
  </defs>
  <path class="cls-1" d="m90.85546875,211.08984375v-74.787109375h20.9404296875v74.787109375h-20.9404296875Zm18.9106445312-16.5595703125l-1.1752929688-23.7192382812,32.158203125-34.5083007812h23.2905273438l-32.0512695312,34.7221679688-11.751953125,12.2866210938-10.4702148438,11.21875Zm31.3032226562,16.5595703125l-24.3588867188-30.8759765625,13.7822265625-14.7446289062,35.1499023438,45.6206054688h-24.5732421875Z"/>
  <path class="cls-1" d="m187.33203125,212.0517578125c-4.630859375,0-8.5473632812-.78515625-11.7524414062-2.3505859375-3.205078125-1.56640625-5.6455078125-3.703125-7.318359375-6.41015625-1.6743164062-2.7060546875-2.5107421875-5.732421875-2.5107421875-9.08203125,0-3.560546875.908203125-6.640625,2.724609375-9.2412109375,1.8159179688-2.5986328125,4.6103515625-4.59375,8.38671875-5.9829101562,3.7744140625-1.3896484375,8.6538085938-2.083984375,14.63671875-2.083984375h13.6752929688v10.5776367188h-10.8974609375c-3.2768554688,0-5.5737304688.5341796875-6.8911132812,1.6025390625-1.3188476562,1.068359375-1.9765625,2.494140625-1.9765625,4.2734375,0,1.78125.6762695312,3.205078125,2.0297851562,4.2734375,1.3525390625,1.068359375,3.2055664062,1.6025390625,5.5556640625,1.6025390625,2.20703125,0,4.2202148438-.55078125,6.0366210938-1.6552734375,1.8159179688-1.103515625,3.1518554688-2.794921875,4.0063476562-5.0751953125l2.7778320312,7.478515625c-1.068359375,3.990234375-3.1518554688,6.998046875-6.25,9.0283203125-3.0986328125,2.029296875-7.1767578125,3.044921875-12.2329101562,3.044921875Zm17.09375-.9619140625v-10.791015625l-1.388671875-2.6708984375v-19.8725585938c0-3.205078125-.9799804688-5.6787109375-2.9379882812-7.4248046875-1.9599609375-1.744140625-5.0747070312-2.6171875-9.3486328125-2.6171875-2.7778320312,0-5.5922851562.4453125-8.4399414062,1.3349609375-2.849609375.8916015625-5.2719726562,2.1201171875-7.2651367188,3.6865234375l-6.8374023438-13.7827148438c3.2749023438-2.13671875,7.2114257812-3.7924804688,11.8056640625-4.9677734375,4.59375-1.1752929688,9.1694335938-1.7626953125,13.728515625-1.7626953125,9.4018554688,0,16.68359375,2.1547851562,21.8481445312,6.4633789062,5.1635742188,4.310546875,7.74609375,11.0576171875,7.74609375,20.24609375v32.1586914062h-18.9106445312Z"/>
  <path class="cls-1" d="m230.0659179688,170.4907226562v-15.1708984375h41.9873046875v15.1708984375h-41.9873046875Zm31.9448242188,41.5610351562c-7.4086914062,0-13.177734375-1.8330078125-17.3081054688-5.5029296875-4.1313476562-3.6669921875-6.1962890625-9.2041015625-6.1962890625-16.61328125v-49.6796875h20.2993164062v49.466796875c0,2.06640625.5688476562,3.685546875,1.7094726562,4.8603515625,1.1381835938,1.17578125,2.5991210938,1.7626953125,4.3803710938,1.7626953125,2.4204101562,0,4.4868164062-.603515625,6.1962890625-1.8154296875l5.021484375,14.208984375c-1.7094726562,1.140625-3.8110351562,1.9765625-6.3032226562,2.5107421875-2.494140625.5341796875-5.0932617188.8017578125-7.7993164062.8017578125Z"/>
  <path class="cls-1" d="m280.9204101562,211.08984375v-11.9658203125l32.478515625-37.3940429688,3.4189453125,6.517578125h-35.1499023438v-15.064453125h51.6030273438v11.859375l-32.5859375,37.5004882812-3.4184570312-6.6240234375h37.0727539062v15.1708984375h-53.4189453125Z"/>
  <path class="cls-1" d="m343.3134765625,211.08984375v-57.9067382812h19.337890625v16.880859375l-2.884765625-4.80859375c1.7094726562-4.3432617188,4.4873046875-7.6015625,8.3334960938-9.775390625,3.8461914062-2.171875,8.5102539062-3.2583007812,13.9956054688-3.2583007812v18.2690429688c-.9262695312-.1416015625-1.7275390625-.23046875-2.4038085938-.2666015625-.677734375-.03515625-1.4072265625-.0537109375-2.1899414062-.0537109375-4.1318359375,0-7.4790039062,1.1220703125-10.04296875,3.365234375-2.5639648438,2.244140625-3.8461914062,5.89453125-3.8461914062,10.9516601562v26.6025390625h-20.2993164062Z"/>
  <path class="cls-1" d="m405.1733398438,212.0517578125c-4.630859375,0-8.5473632812-.78515625-11.7524414062-2.3505859375-3.205078125-1.56640625-5.6455078125-3.703125-7.318359375-6.41015625-1.6743164062-2.7060546875-2.5107421875-5.732421875-2.5107421875-9.08203125,0-3.560546875.908203125-6.640625,2.724609375-9.2412109375,1.8159179688-2.5986328125,4.6103515625-4.59375,8.38671875-5.9829101562,3.7744140625-1.3896484375,8.6538085938-2.083984375,14.63671875-2.083984375h13.6752929688v10.5776367188h-10.8974609375c-3.2768554688,0-5.5737304688.5341796875-6.8911132812,1.6025390625-1.3188476562,1.068359375-1.9765625,2.494140625-1.9765625,4.2734375,0,1.78125.6762695312,3.205078125,2.0297851562,4.2734375,1.3525390625,1.068359375,3.2055664062,1.6025390625,5.5556640625,1.6025390625,2.20703125,0,4.2202148438-.55078125,6.0366210938-1.6552734375,1.8159179688-1.103515625,3.1518554688-2.794921875,4.0063476562-5.0751953125l2.7778320312,7.478515625c-1.068359375,3.990234375-3.1518554688,6.998046875-6.25,9.0283203125-3.0986328125,2.029296875-7.1767578125,3.044921875-12.2329101562,3.044921875Zm17.09375-.9619140625v-10.791015625l-1.388671875-2.6708984375v-19.8725585938c0-3.205078125-.9799804688-5.6787109375-2.9379882812-7.4248046875-1.9599609375-1.744140625-5.0747070312-2.6171875-9.3486328125-2.6171875-2.7778320312,0-5.5922851562.4453125-8.4399414062,1.3349609375-2.849609375.8916015625-5.2719726562,2.1201171875-7.2651367188,3.6865234375l-6.8374023438-13.7827148438c3.2749023438-2.13671875,7.2114257812-3.7924804688,11.8056640625-4.9677734375,4.59375-1.1752929688,9.1694335938-1.7626953125,13.728515625-1.7626953125,9.4018554688,0,16.68359375,2.1547851562,21.8481445312,6.4633789062,5.1635742188,4.310546875,7.74609375,11.0576171875,7.74609375,20.24609375v32.1586914062h-18.9106445312Z"/>
  <path class="cls-1" d="m491.7114257812,152.2216796875c4.4873046875,0,8.546875.908203125,12.1796875,2.7241210938,3.6323242188,1.81640625,6.4985351562,4.6123046875,8.6005859375,8.38671875,2.099609375,3.7763671875,3.1513671875,8.654296875,3.1513671875,14.63671875v33.1206054688h-20.2993164062v-29.8076171875c0-4.1303710938-.837890625-7.1401367188-2.5102539062-9.0288085938-1.6748046875-1.8857421875-4.0068359375-2.8310546875-6.998046875-2.8310546875-2.13671875,0-4.0966796875.48046875-5.8759765625,1.4423828125-1.78125.9619140625-3.1704101562,2.4404296875-4.1669921875,4.43359375-.998046875,1.9951171875-1.4956054688,4.5947265625-1.4956054688,7.8002929688v27.9912109375h-20.2993164062v-57.9067382812h19.337890625v16.453125l-3.7392578125-4.8076171875c2.2065429688-4.2021484375,5.2348632812-7.353515625,9.0810546875-9.4555664062,3.8461914062-2.099609375,8.1899414062-3.1513671875,13.0341796875-3.1513671875Z"/>
  <path class="cls-1" d="m581.3466796875,211.08984375l-25-74.787109375h11.0048828125l22.9697265625,69.017578125h-5.5556640625l23.8251953125-69.017578125h9.8291015625l23.2900390625,69.017578125h-5.341796875l23.291015625-69.017578125h10.1494140625l-25,74.787109375h-11.2177734375l-21.794921875-63.9965820312h2.884765625l-21.90234375,63.9965820312h-11.431640625Z"/>
  <path class="cls-1" d="m702.2880859375,211.73046875c-6.0546875,0-11.37890625-1.2451171875-15.97265625-3.7392578125-4.59375-2.4921875-8.15625-5.9111328125-10.68359375-10.255859375-2.529296875-4.34375-3.79296875-9.330078125-3.79296875-14.9580078125,0-5.6254882812,1.228515625-10.6118164062,3.685546875-14.9575195312,2.4580078125-4.34375,5.83984375-7.7456054688,10.1494140625-10.203125,4.30859375-2.45703125,9.169921875-3.685546875,14.583984375-3.685546875,5.4833984375,0,10.326171875,1.2119140625,14.5302734375,3.6323242188,4.201171875,2.4223632812,7.4951171875,5.8227539062,9.8818359375,10.2026367188,2.3857421875,4.380859375,3.5791015625,9.4921875,3.5791015625,15.3325195312,0,.4267578125-.017578125.92578125-.052734375,1.4951171875-.037109375.5712890625-.0908203125,1.10546875-.16015625,1.6025390625h-48.1845703125v-7.3715820312h42.841796875l-4.166015625,2.5639648438c.0693359375-3.6333007812-.677734375-6.8725585938-2.244140625-9.7221679688-1.5673828125-2.8486328125-3.72265625-5.0751953125-6.4638671875-6.677734375-2.7421875-1.6025390625-5.9287109375-2.404296875-9.5615234375-2.404296875-3.5625,0-6.73046875.8017578125-9.5087890625,2.404296875-2.77734375,1.6025390625-4.951171875,3.845703125-6.5166015625,6.73046875-1.568359375,2.884765625-2.3505859375,6.1796875-2.3505859375,9.8833007812v1.708984375c0,3.7763671875.87109375,7.1416015625,2.6171875,10.0966796875,1.744140625,2.9560546875,4.18359375,5.2529296875,7.318359375,6.890625,3.1337890625,1.6396484375,6.73046875,2.4580078125,10.791015625,2.4580078125,3.3466796875,0,6.3916015625-.5693359375,9.134765625-1.7099609375,2.7412109375-1.138671875,5.14453125-2.84765625,7.2109375-5.1279296875l5.6630859375,6.6240234375c-2.564453125,2.9912109375-5.7529296875,5.271484375-9.5625,6.837890625-3.810546875,1.5673828125-8.06640625,2.349609375-12.7666015625,2.349609375Z"/>
  <path class="cls-1" d="m742.458984375,211.08984375v-79.2744140625h10.255859375v37.7143554688l-1.068359375,13.1411132812.6416015625,13.140625v15.2783203125h-9.8291015625Zm30.021484375.640625c-4.8447265625,0-9.20703125-1.0849609375-13.087890625-3.2578125-3.8828125-2.171875-6.9443359375-5.3955078125-9.1884765625-9.6689453125-2.2431640625-4.2734375-3.365234375-9.615234375-3.365234375-16.0263671875,0-6.4106445312,1.1572265625-11.7524414062,3.47265625-16.0258789062,2.3134765625-4.2734375,5.412109375-7.478515625,9.294921875-9.615234375,3.880859375-2.13671875,8.1728515625-3.205078125,12.8740234375-3.205078125,5.5556640625,0,10.4697265625,1.2119140625,14.7431640625,3.6323242188,4.2734375,2.4223632812,7.65625,5.7875976562,10.1494140625,10.0961914062,2.4931640625,4.310546875,3.7392578125,9.3486328125,3.7392578125,15.1176757812,0,5.76953125-1.24609375,10.828125-3.7392578125,15.171875-2.4931640625,4.3447265625-5.8759765625,7.728515625-10.1494140625,10.1494140625-4.2734375,2.421875-9.1875,3.6318359375-14.7431640625,3.6318359375Zm-.85546875-8.9736328125c3.6328125,0,6.8916015625-.818359375,9.7763671875-2.4580078125,2.884765625-1.6376953125,5.1630859375-3.9697265625,6.8369140625-6.9970703125,1.6728515625-3.02734375,2.5107421875-6.5341796875,2.5107421875-10.5244140625,0-4.0600585938-.837890625-7.5668945312-2.5107421875-10.5239257812-1.673828125-2.9541015625-3.9521484375-5.251953125-6.8369140625-6.890625-2.884765625-1.6376953125-6.1435546875-2.45703125-9.7763671875-2.45703125-3.5615234375,0-6.7841796875.8193359375-9.66796875,2.45703125-2.884765625,1.638671875-5.1650390625,3.9365234375-6.837890625,6.890625-1.6748046875,2.95703125-2.5107421875,6.4638671875-2.5107421875,10.5239257812,0,3.990234375.8359375,7.4970703125,2.5107421875,10.5244140625,1.6728515625,3.02734375,3.953125,5.359375,6.837890625,6.9970703125,2.8837890625,1.6396484375,6.1064453125,2.4580078125,9.66796875,2.4580078125Z"/>
  <path class="cls-1" d="m831.5615234375,211.73046875c-4.701171875,0-9.171875-.640625-13.408203125-1.9228515625-4.23828125-1.2822265625-7.5693359375-2.84765625-9.9892578125-4.701171875l4.2734375-8.119140625c2.419921875,1.6396484375,5.412109375,3.0283203125,8.974609375,4.1669921875,3.560546875,1.1396484375,7.1923828125,1.708984375,10.8974609375,1.708984375,4.7705078125,0,8.2080078125-.67578125,10.3095703125-2.0302734375,2.099609375-1.3515625,3.1513671875-3.240234375,3.1513671875-5.662109375,0-1.779296875-.640625-3.16796875-1.9228515625-4.1669921875-1.2822265625-.99609375-2.974609375-1.744140625-5.0751953125-2.2431640625-2.1015625-.4970703125-4.43359375-.943359375-6.9970703125-1.3359375-2.564453125-.390625-5.12890625-.8896484375-7.6923828125-1.4951171875-2.564453125-.6044921875-4.9150390625-1.458984375-7.0517578125-2.564453125-2.13671875-1.103515625-3.845703125-2.6337890625-5.1279296875-4.5942382812-1.2822265625-1.9580078125-1.923828125-4.576171875-1.923828125-7.8525390625,0-3.4189453125.9619140625-6.41015625,2.884765625-8.974609375,1.923828125-2.5639648438,4.6474609375-4.5405273438,8.173828125-5.9296875,3.525390625-1.388671875,7.708984375-2.0830078125,12.552734375-2.0830078125,3.703125,0,7.4609375.4453125,11.271484375,1.3354492188,3.8095703125.8911132812,6.9267578125,2.1547851562,9.3486328125,3.7924804688l-4.3798828125,8.1201171875c-2.564453125-1.7099609375-5.2353515625-2.884765625-8.013671875-3.5263671875-2.77734375-.640625-5.5556640625-.9609375-8.3330078125-.9609375-4.4873046875,0-7.8359375.73046875-10.04296875,2.1904296875-2.2080078125,1.4599609375-3.3115234375,3.330078125-3.3115234375,5.6083984375,0,1.9228515625.6572265625,3.40234375,1.9765625,4.43359375,1.31640625,1.033203125,3.0263671875,1.8349609375,5.1279296875,2.404296875,2.099609375.5703125,4.43359375,1.0517578125,6.998046875,1.4423828125,2.5634765625.392578125,5.1279296875.8916015625,7.6923828125,1.4956054688,2.5634765625.6064453125,4.8955078125,1.4423828125,6.998046875,2.5107421875,2.099609375,1.068359375,3.8095703125,2.564453125,5.1279296875,4.4873046875,1.3173828125,1.923828125,1.9765625,4.4873046875,1.9765625,7.6923828125,0,3.4189453125-.998046875,6.375-2.9912109375,8.8681640625-1.9951171875,2.494140625-4.8076171875,4.43359375-8.4404296875,5.822265625s-7.9775390625,2.0830078125-13.0341796875,2.0830078125Z"/>
  <path class="cls-1" d="m873.974609375,143.5678710938c-1.9951171875,0-3.6513671875-.6411132812-4.9677734375-1.9233398438-1.3193359375-1.2822265625-1.9765625-2.8481445312-1.9765625-4.7006835938,0-1.9233398438.6572265625-3.5258789062,1.9765625-4.8081054688,1.31640625-1.2817382812,2.97265625-1.9228515625,4.9677734375-1.9228515625,1.9931640625,0,3.6494140625.6245117188,4.9677734375,1.8696289062,1.3173828125,1.2470703125,1.9765625,2.7963867188,1.9765625,4.6474609375,0,1.9228515625-.640625,3.5439453125-1.9228515625,4.861328125-1.2822265625,1.318359375-2.95703125,1.9765625-5.021484375,1.9765625Zm-5.1279296875,67.5219726562v-56.6245117188h10.255859375v56.6245117188h-10.255859375Z"/>
  <path class="cls-1" d="m890.533203125,162.9057617188v-8.4404296875h36.111328125v8.4404296875h-36.111328125Zm27.564453125,48.8247070312c-5.69921875,0-10.1142578125-1.5302734375-13.248046875-4.59375-3.134765625-3.0615234375-4.701171875-7.44140625-4.701171875-13.140625v-51.9243164062h10.2568359375v51.4965820312c0,3.0634765625.7646484375,5.4140625,2.296875,7.0517578125,1.53125,1.638671875,3.720703125,2.45703125,6.5703125,2.45703125,3.205078125,0,5.8759765625-.8896484375,8.0126953125-2.6708984375l3.205078125,7.3720703125c-1.5673828125,1.353515625-3.4365234375,2.349609375-5.6083984375,2.9912109375-2.173828125.640625-4.43359375.9609375-6.7841796875.9609375Z"/>
  <path class="cls-1" d="m966.1748046875,211.73046875c-6.0546875,0-11.37890625-1.2451171875-15.97265625-3.7392578125-4.59375-2.4921875-8.15625-5.9111328125-10.68359375-10.255859375-2.529296875-4.34375-3.79296875-9.330078125-3.79296875-14.9580078125,0-5.6254882812,1.228515625-10.6118164062,3.685546875-14.9575195312,2.4580078125-4.34375,5.83984375-7.7456054688,10.1494140625-10.203125,4.30859375-2.45703125,9.169921875-3.685546875,14.583984375-3.685546875,5.4833984375,0,10.326171875,1.2119140625,14.5302734375,3.6323242188,4.201171875,2.4223632812,7.4951171875,5.8227539062,9.8818359375,10.2026367188,2.3857421875,4.380859375,3.5791015625,9.4921875,3.5791015625,15.3325195312,0,.4267578125-.017578125.92578125-.052734375,1.4951171875-.037109375.5712890625-.0908203125,1.10546875-.16015625,1.6025390625h-48.1845703125v-7.3715820312h42.841796875l-4.166015625,2.5639648438c.0693359375-3.6333007812-.677734375-6.8725585938-2.244140625-9.7221679688-1.5673828125-2.8486328125-3.72265625-5.0751953125-6.4638671875-6.677734375-2.7421875-1.6025390625-5.9287109375-2.404296875-9.5615234375-2.404296875-3.5625,0-6.73046875.8017578125-9.5087890625,2.404296875-2.77734375,1.6025390625-4.951171875,3.845703125-6.5166015625,6.73046875-1.568359375,2.884765625-2.3505859375,6.1796875-2.3505859375,9.8833007812v1.708984375c0,3.7763671875.87109375,7.1416015625,2.6171875,10.0966796875,1.744140625,2.9560546875,4.18359375,5.2529296875,7.318359375,6.890625,3.1337890625,1.6396484375,6.73046875,2.4580078125,10.791015625,2.4580078125,3.3466796875,0,6.3916015625-.5693359375,9.134765625-1.7099609375,2.7412109375-1.138671875,5.14453125-2.84765625,7.2109375-5.1279296875l5.6630859375,6.6240234375c-2.564453125,2.9912109375-5.7529296875,5.271484375-9.5625,6.837890625-3.810546875,1.5673828125-8.06640625,2.349609375-12.7666015625,2.349609375Z"/>
</svg>