<?xml version="1.0" encoding="UTF-8"?>
<svg id="Layer_1" data-name="Layer 1" xmlns="http://www.w3.org/2000/svg" viewBox="0 0 902.6300048828 200">
  <defs>
    <style>
      .cls-1 {
        fill: #faac0c;
        stroke-width: 0px;
      }
    </style>
  </defs>
  <path class="cls-1" d="m28.0024414062,133.9814453125V63.49609375h19.736328125v70.4853515625h-19.736328125Zm17.8227539062-15.607421875l-1.107421875-22.3540039062,30.30859375-32.5239257812h21.951171875l-30.2080078125,32.7250976562-11.076171875,11.5795898438-9.8681640625,10.5732421875Zm29.5034179688,15.607421875l-22.9580078125-29.1005859375,12.9892578125-13.8955078125,33.1284179688,42.99609375h-23.1596679688Z"/>
  <path class="cls-1" d="m118.9301757812,134.8876953125c-4.3642578125,0-8.0556640625-.7392578125-11.076171875-2.21484375-3.0209960938-1.4765625-5.3212890625-3.490234375-6.8974609375-6.0419921875-1.578125-2.55078125-2.3662109375-5.4033203125-2.3662109375-8.55859375,0-3.3564453125.85546875-6.2587890625,2.5673828125-8.7099609375,1.7119140625-2.4501953125,4.345703125-4.330078125,7.9047851562-5.6396484375,3.5571289062-1.30859375,8.1557617188-1.962890625,13.794921875-1.962890625h12.888671875v9.96875h-10.2709960938c-3.0883789062,0-5.2529296875.5029296875-6.4946289062,1.509765625-1.2426757812,1.0068359375-1.8627929688,2.3505859375-1.8627929688,4.0283203125,0,1.6787109375.6372070312,3.0205078125,1.9130859375,4.02734375,1.2744140625,1.0068359375,3.0209960938,1.5107421875,5.236328125,1.5107421875,2.0795898438,0,3.9770507812-.51953125,5.6889648438-1.560546875,1.7119140625-1.0400390625,2.970703125-2.6337890625,3.7758789062-4.783203125l2.6181640625,7.048828125c-1.0068359375,3.759765625-2.9702148438,6.5947265625-5.890625,8.5078125-2.919921875,1.9130859375-6.763671875,2.8701171875-11.529296875,2.8701171875Zm16.1108398438-.90625v-10.169921875l-1.3090820312-2.517578125v-18.7294921875c0-3.0200195312-.9233398438-5.3520507812-2.7690429688-6.9975585938-1.8466796875-1.6440429688-4.7827148438-2.466796875-8.810546875-2.466796875-2.6181640625,0-5.2705078125.419921875-7.9545898438,1.2583007812-2.6860351562.8403320312-4.96875,1.9985351562-6.8471679688,3.4741210938l-6.4443359375-12.9892578125c3.0869140625-2.0141601562,6.796875-3.5747070312,11.1264648438-4.6826171875,4.3295898438-1.107421875,8.6420898438-1.6611328125,12.9389648438-1.6611328125,8.861328125,0,15.7241210938,2.03125,20.591796875,6.091796875,4.8666992188,4.0625,7.3002929688,10.421875,7.3002929688,19.0815429688v30.30859375h-17.8227539062Z"/>
  <path class="cls-1" d="m159.2065429688,95.7177734375v-14.2983398438h39.572265625v14.2983398438h-39.572265625Zm30.107421875,39.169921875c-6.982421875,0-12.419921875-1.7275390625-16.3125-5.185546875-3.8940429688-3.45703125-5.8403320312-8.67578125-5.8403320312-15.658203125v-46.822265625h19.1318359375v46.62109375c0,1.9482421875.5366210938,3.4736328125,1.611328125,4.5810546875,1.0727539062,1.1083984375,2.4497070312,1.662109375,4.1284179688,1.662109375,2.28125,0,4.2290039062-.5693359375,5.83984375-1.7119140625l4.7329101562,13.392578125c-1.611328125,1.07421875-3.591796875,1.8623046875-5.9409179688,2.3662109375-2.3505859375.5029296875-4.8002929688.7548828125-7.3505859375.7548828125Z"/>
  <path class="cls-1" d="m207.1357421875,133.9814453125v-11.27734375l30.6108398438-35.2431640625,3.2221679688,6.142578125h-33.1279296875v-14.1977539062h48.634765625v11.1767578125l-30.7114257812,35.3432617188-3.2221679688-6.2431640625h34.9404296875v14.298828125h-50.3466796875Z"/>
  <path class="cls-1" d="m265.9404296875,133.9814453125v-54.5756835938h18.2255859375v15.9091796875l-2.71875-4.5307617188c1.611328125-4.0942382812,4.2294921875-7.1650390625,7.8544921875-9.2138671875,3.6245117188-2.046875,8.0205078125-3.0708007812,13.1904296875-3.0708007812v17.2182617188c-.873046875-.1337890625-1.6284179688-.216796875-2.265625-.2514648438-.638671875-.033203125-1.326171875-.0502929688-2.0639648438-.0502929688-3.8940429688,0-7.048828125,1.0571289062-9.4653320312,3.171875-2.4165039062,2.1142578125-3.625,5.5556640625-3.625,10.3212890625v25.072265625h-19.1318359375Z"/>
  <path class="cls-1" d="m324.2426757812,134.8876953125c-4.3642578125,0-8.0556640625-.7392578125-11.076171875-2.21484375-3.0209960938-1.4765625-5.3212890625-3.490234375-6.8974609375-6.0419921875-1.578125-2.55078125-2.3662109375-5.4033203125-2.3662109375-8.55859375,0-3.3564453125.85546875-6.2587890625,2.5673828125-8.7099609375,1.7119140625-2.4501953125,4.345703125-4.330078125,7.9047851562-5.6396484375,3.5571289062-1.30859375,8.1557617188-1.962890625,13.794921875-1.962890625h12.888671875v9.96875h-10.2709960938c-3.0883789062,0-5.2529296875.5029296875-6.4946289062,1.509765625-1.2426757812,1.0068359375-1.8627929688,2.3505859375-1.8627929688,4.0283203125,0,1.6787109375.6372070312,3.0205078125,1.9130859375,4.02734375,1.2744140625,1.0068359375,3.0209960938,1.5107421875,5.236328125,1.5107421875,2.0795898438,0,3.9770507812-.51953125,5.6889648438-1.560546875,1.7119140625-1.0400390625,2.970703125-2.6337890625,3.7758789062-4.783203125l2.6181640625,7.048828125c-1.0068359375,3.759765625-2.9702148438,6.5947265625-5.890625,8.5078125-2.919921875,1.9130859375-6.763671875,2.8701171875-11.529296875,2.8701171875Zm16.1108398438-.90625v-10.169921875l-1.3090820312-2.517578125v-18.7294921875c0-3.0200195312-.9233398438-5.3520507812-2.7690429688-6.9975585938-1.8466796875-1.6440429688-4.7827148438-2.466796875-8.810546875-2.466796875-2.6181640625,0-5.2705078125.419921875-7.9545898438,1.2583007812-2.6860351562.8403320312-4.96875,1.9985351562-6.8471679688,3.4741210938l-6.4443359375-12.9892578125c3.0869140625-2.0141601562,6.796875-3.5747070312,11.1264648438-4.6826171875,4.3295898438-1.107421875,8.6420898438-1.6611328125,12.9389648438-1.6611328125,8.861328125,0,15.7241210938,2.03125,20.591796875,6.091796875,4.8666992188,4.0625,7.3002929688,10.421875,7.3002929688,19.0815429688v30.30859375h-17.8227539062Z"/>
  <path class="cls-1" d="m405.8032226562,78.4995117188c4.2290039062,0,8.0556640625.8559570312,11.4790039062,2.5673828125,3.4243164062,1.7119140625,6.1254882812,4.3471679688,8.1059570312,7.9047851562,1.978515625,3.55859375,2.970703125,8.1557617188,2.970703125,13.794921875v31.21484375h-19.1318359375v-28.09375c0-3.892578125-.7900390625-6.7290039062-2.3666992188-8.5083007812-1.5776367188-1.7778320312-3.7758789062-2.6684570312-6.5952148438-2.6684570312-2.013671875,0-3.8608398438.453125-5.5380859375,1.359375-1.6787109375.90625-2.9877929688,2.3002929688-3.9272460938,4.1787109375-.9409179688,1.8798828125-1.4096679688,4.330078125-1.4096679688,7.3505859375v26.3818359375h-19.1318359375v-54.5756835938h18.2255859375v15.5068359375l-3.5239257812-4.53125c2.0795898438-3.9604492188,4.93359375-6.9306640625,8.55859375-8.9116210938,3.625-1.9790039062,7.71875-2.9702148438,12.2846679688-2.9702148438Z"/>
  <path class="cls-1" d="m490.283203125,133.9814453125l-23.5615234375-70.4853515625h10.37109375l21.6494140625,65.0478515625h-5.236328125l22.4541015625-65.0478515625h9.263671875l21.951171875,65.0478515625h-5.0341796875l21.951171875-65.0478515625h9.5654296875l-23.5615234375,70.4853515625h-10.5732421875l-20.541015625-60.3154296875h2.71875l-20.642578125,60.3154296875h-10.7744140625Z"/>
  <path class="cls-1" d="m604.267578125,134.5859375c-5.7060546875,0-10.7236328125-1.173828125-15.0537109375-3.5244140625-4.330078125-2.349609375-7.6875-5.5712890625-10.0693359375-9.6669921875-2.3837890625-4.09375-3.57421875-8.79296875-3.57421875-14.0966796875,0-5.302734375,1.1572265625-10.001953125,3.4736328125-14.0971679688,2.3154296875-4.09375,5.50390625-7.3002929688,9.5654296875-9.6162109375s8.642578125-3.4741210938,13.7451171875-3.4741210938c5.16796875,0,9.732421875,1.142578125,13.6943359375,3.423828125,3.9599609375,2.2827148438,7.064453125,5.4877929688,9.314453125,9.6162109375,2.248046875,4.1284179688,3.373046875,8.9453125,3.373046875,14.44921875,0,.4033203125-.017578125.873046875-.05078125,1.41015625-.0341796875.5380859375-.0849609375,1.041015625-.150390625,1.509765625h-45.4130859375v-6.947265625h40.3779296875l-3.9267578125,2.416015625c.0654296875-3.423828125-.638671875-6.4770507812-2.115234375-9.1625976562-1.4765625-2.6840820312-3.5078125-4.783203125-6.091796875-6.2934570312-2.5849609375-1.5102539062-5.587890625-2.265625-9.01171875-2.265625-3.357421875,0-6.34375.7553710938-8.9619140625,2.265625s-4.666015625,3.625-6.142578125,6.34375-2.21484375,5.82421875-2.21484375,9.314453125v1.6103515625c0,3.5595703125.8212890625,6.7314453125,2.466796875,9.515625,1.64453125,2.787109375,3.943359375,4.951171875,6.8974609375,6.4951171875,2.953125,1.544921875,6.34375,2.3154296875,10.169921875,2.3154296875,3.1552734375,0,6.0244140625-.5361328125,8.609375-1.6103515625,2.583984375-1.0732421875,4.849609375-2.6845703125,6.796875-4.833984375l5.3369140625,6.2431640625c-2.4169921875,2.8193359375-5.421875,4.96875-9.01171875,6.4443359375-3.591796875,1.4775390625-7.6025390625,2.2158203125-12.033203125,2.2158203125Z"/>
  <path class="cls-1" d="m642.12890625,133.9814453125V59.2670898438h9.6669921875v35.5444335938l-1.0078125,12.3857421875.6044921875,12.384765625v14.3994140625h-9.263671875Zm28.294921875.6044921875c-4.5654296875,0-8.6767578125-1.0234375-12.3349609375-3.0712890625-3.6591796875-2.046875-6.544921875-5.0849609375-8.6591796875-9.11328125-2.115234375-4.02734375-3.171875-9.0625-3.171875-15.103515625,0-6.0419921875,1.08984375-11.0766601562,3.2724609375-15.1040039062,2.1806640625-4.0278320312,5.1005859375-7.048828125,8.759765625-9.0625,3.658203125-2.0141601562,7.703125-3.0209960938,12.1337890625-3.0209960938,5.236328125,0,9.8681640625,1.142578125,13.8955078125,3.423828125,4.0283203125,2.2827148438,7.2158203125,5.4545898438,9.56640625,9.5151367188,2.3486328125,4.0625,3.5234375,8.8110351562,3.5234375,14.2485351562s-1.1748046875,10.2041015625-3.5234375,14.2978515625c-2.3505859375,4.095703125-5.5380859375,7.28515625-9.56640625,9.56640625-4.02734375,2.283203125-8.6591796875,3.423828125-13.8955078125,3.423828125Zm-.8056640625-8.458984375c3.423828125,0,6.4951171875-.7705078125,9.2138671875-2.3154296875,2.71875-1.5439453125,4.8662109375-3.7412109375,6.4443359375-6.595703125,1.576171875-2.8525390625,2.3662109375-6.158203125,2.3662109375-9.91796875,0-3.826171875-.7900390625-7.1323242188-2.3662109375-9.9184570312-1.578125-2.7846679688-3.7255859375-4.9497070312-6.4443359375-6.4946289062-2.71875-1.5434570312-5.7900390625-2.3159179688-9.2138671875-2.3159179688-3.357421875,0-6.3935546875.7724609375-9.1123046875,2.3159179688-2.71875,1.544921875-4.8681640625,3.7099609375-6.4443359375,6.4946289062-1.578125,2.7861328125-2.3671875,6.0922851562-2.3671875,9.9184570312,0,3.759765625.7890625,7.0654296875,2.3671875,9.91796875,1.576171875,2.8544921875,3.7255859375,5.0517578125,6.4443359375,6.595703125,2.71875,1.544921875,5.7548828125,2.3154296875,9.1123046875,2.3154296875Z"/>
  <path class="cls-1" d="m726.1064453125,134.5859375c-4.4306640625,0-8.64453125-.6044921875-12.6376953125-1.8125-3.994140625-1.208984375-7.1328125-2.6845703125-9.4140625-4.4306640625l4.02734375-7.6533203125c2.28125,1.5458984375,5.1005859375,2.8544921875,8.4580078125,3.927734375,3.3564453125,1.07421875,6.7802734375,1.611328125,10.271484375,1.611328125,4.49609375,0,7.7353515625-.6376953125,9.716796875-1.9140625,1.978515625-1.2744140625,2.9697265625-3.0537109375,2.9697265625-5.3359375,0-1.677734375-.603515625-2.986328125-1.8125-3.927734375-1.2080078125-.939453125-2.8037109375-1.6435546875-4.7822265625-2.1142578125-1.9814453125-.46875-4.1787109375-.888671875-6.595703125-1.2587890625-2.4169921875-.3681640625-4.8330078125-.8388671875-7.25-1.4091796875s-4.6318359375-1.3759765625-6.6455078125-2.4169921875c-2.013671875-1.0400390625-3.625-2.482421875-4.833984375-4.330078125-1.2080078125-1.845703125-1.8115234375-4.3125-1.8115234375-7.4008789062,0-3.2221679688.90625-6.0415039062,2.7177734375-8.4580078125,1.8125-2.4169921875,4.380859375-4.2797851562,7.703125-5.5888671875,3.3232421875-1.30859375,7.265625-1.9633789062,11.83203125-1.9633789062,3.4892578125,0,7.03125.4204101562,10.623046875,1.2587890625,3.58984375.8403320312,6.52734375,2.03125,8.810546875,3.5747070312l-4.1279296875,7.6528320312c-2.4169921875-1.611328125-4.9345703125-2.71875-7.552734375-3.3232421875-2.6181640625-.6040039062-5.2353515625-.90625-7.853515625-.90625-4.2294921875,0-7.3857421875.689453125-9.4658203125,2.064453125-2.0810546875,1.3764648438-3.12109375,3.138671875-3.12109375,5.2861328125,0,1.8125.6201171875,3.2065429688,1.86328125,4.1787109375,1.2412109375.9741210938,2.8515625,1.7294921875,4.8330078125,2.265625,1.9794921875.5380859375,4.1787109375.9912109375,6.595703125,1.359375,2.416015625.3701171875,4.8330078125.8408203125,7.2490234375,1.41015625,2.4169921875.5712890625,4.615234375,1.359375,6.595703125,2.3662109375,1.9794921875,1.0068359375,3.5908203125,2.416015625,4.8330078125,4.228515625s1.86328125,4.2294921875,1.86328125,7.25c0,3.22265625-.9404296875,6.0087890625-2.8193359375,8.3583984375-1.8798828125,2.349609375-4.53125,4.1787109375-7.955078125,5.4873046875s-7.5185546875,1.9638671875-12.2841796875,1.9638671875Z"/>
  <path class="cls-1" d="m766.080078125,70.3432617188c-1.8798828125,0-3.4404296875-.6040039062-4.681640625-1.8125-1.2431640625-1.2084960938-1.86328125-2.6840820312-1.86328125-4.4306640625,0-1.8125.6201171875-3.3227539062,1.86328125-4.53125,1.2412109375-1.2080078125,2.8017578125-1.8125,4.681640625-1.8125,1.87890625,0,3.439453125.5883789062,4.6826171875,1.7622070312,1.2412109375,1.1752929688,1.8623046875,2.6352539062,1.8623046875,4.3803710938,0,1.8125-.603515625,3.33984375-1.8125,4.5815429688-1.2080078125,1.2426757812-2.7861328125,1.8627929688-4.732421875,1.8627929688Zm-4.8330078125,63.6381835938v-53.3676757812h9.6669921875v53.3676757812h-9.6669921875Z"/>
  <path class="cls-1" d="m781.6875,88.5688476562v-7.955078125h34.0341796875v7.955078125h-34.0341796875Zm25.978515625,46.0170898438c-5.37109375,0-9.533203125-1.443359375-12.486328125-4.330078125-2.9541015625-2.8857421875-4.4296875-7.013671875-4.4296875-12.3857421875v-48.9365234375h9.666015625v48.5341796875c0,2.88671875.720703125,5.1025390625,2.1650390625,6.6455078125,1.4423828125,1.544921875,3.5068359375,2.31640625,6.1923828125,2.31640625,3.021484375,0,5.5380859375-.8388671875,7.552734375-2.517578125l3.0205078125,6.9482421875c-1.4775390625,1.275390625-3.2392578125,2.21484375-5.2861328125,2.8193359375-2.048828125.603515625-4.1796875.90625-6.39453125.90625Z"/>
  <path class="cls-1" d="m852.978515625,134.5859375c-5.7060546875,0-10.7236328125-1.173828125-15.0537109375-3.5244140625-4.330078125-2.349609375-7.6875-5.5712890625-10.0693359375-9.6669921875-2.3837890625-4.09375-3.57421875-8.79296875-3.57421875-14.0966796875,0-5.302734375,1.1572265625-10.001953125,3.4736328125-14.0971679688,2.3154296875-4.09375,5.50390625-7.3002929688,9.5654296875-9.6162109375s8.642578125-3.4741210938,13.7451171875-3.4741210938c5.16796875,0,9.732421875,1.142578125,13.6943359375,3.423828125,3.9599609375,2.2827148438,7.064453125,5.4877929688,9.314453125,9.6162109375,2.248046875,4.1284179688,3.373046875,8.9453125,3.373046875,14.44921875,0,.4033203125-.017578125.873046875-.05078125,1.41015625-.0341796875.5380859375-.0849609375,1.041015625-.150390625,1.509765625h-45.4130859375v-6.947265625h40.3779296875l-3.9267578125,2.416015625c.0654296875-3.423828125-.638671875-6.4770507812-2.115234375-9.1625976562-1.4765625-2.6840820312-3.5078125-4.783203125-6.091796875-6.2934570312-2.5849609375-1.5102539062-5.587890625-2.265625-9.01171875-2.265625-3.357421875,0-6.34375.7553710938-8.9619140625,2.265625s-4.666015625,3.625-6.142578125,6.34375-2.21484375,5.82421875-2.21484375,9.314453125v1.6103515625c0,3.5595703125.8212890625,6.7314453125,2.466796875,9.515625,1.64453125,2.787109375,3.943359375,4.951171875,6.8974609375,6.4951171875,2.953125,1.544921875,6.34375,2.3154296875,10.169921875,2.3154296875,3.1552734375,0,6.0244140625-.5361328125,8.609375-1.6103515625,2.583984375-1.0732421875,4.849609375-2.6845703125,6.796875-4.833984375l5.3369140625,6.2431640625c-2.4169921875,2.8193359375-5.421875,4.96875-9.01171875,6.4443359375-3.591796875,1.4775390625-7.6025390625,2.2158203125-12.033203125,2.2158203125Z"/>
</svg>